<svg width="28" height="23" viewBox="0 0 28 23" fill="none" xmlns="http://www.w3.org/2000/svg">
<path fill-rule="evenodd" clip-rule="evenodd" d="M8.1686 14.8009C6.99692 12.6617 7.29096 9.66835 9.5027 7.685C11.596 5.80793 14.5107 5.68372 16.4706 6.72618C15.8538 7.32655 15.2401 7.92665 14.6201 8.52049C14.5807 8.55813 14.4918 8.55756 14.426 8.55729C13.9853 8.55555 13.5337 8.48547 13.1059 8.55498C11.0284 8.89239 9.687 10.788 10.0554 12.8094C10.0661 12.8684 10.0513 12.9561 10.0116 12.9955C9.40563 13.5961 8.79348 14.1908 8.1686 14.8009ZM23.4232 0C22.0593 1.32475 20.6962 2.65016 19.3284 3.97104C19.2875 4.01054 19.1857 4.03246 19.1325 4.01229C17.95 3.56328 16.7274 3.26887 15.4672 3.12659C14.4079 3.00701 13.3471 3.00439 12.2841 3.1044C11.0522 3.22037 9.85495 3.48101 8.69524 3.8923C6.53595 4.65801 4.65675 5.84595 3.06421 7.45414C1.74952 8.7817 0.734625 10.2992 0.0225086 12.0045C-0.0110899 12.0849 -0.0055228 12.2028 0.028899 12.2847C0.995258 14.5853 2.48802 16.5074 4.47958 18.0689C4.52012 18.1006 4.56082 18.1324 4.60014 18.1655C4.60872 18.1727 4.61186 18.1861 4.6226 18.206C3.49033 19.3014 2.35598 20.3988 1.22817 21.4899C1.76865 22.0086 2.29525 22.5139 2.80185 23C10.1837 15.8547 17.5884 8.6875 25 1.51346C24.5474 1.07513 24.0726 0.616018 23.5991 0.155619C23.5496 0.107494 23.5077 0.0520382 23.4623 0H23.4232Z" fill="#F65261"/>
<path fill-rule="evenodd" clip-rule="evenodd" d="M23.6721 7C23.1239 7.49346 22.5871 7.97676 22.0501 8.46003C21.396 9.04882 20.7434 9.63906 20.0857 10.2247C19.9894 10.3105 19.9652 10.3808 20.0147 10.5022C21.3267 13.7262 19.1636 17.2627 15.4347 18.0002C14.2494 18.2347 13.0865 18.1663 11.9479 17.7935C11.7944 17.7433 11.7022 17.7614 11.5883 17.865C10.7933 18.5878 9.99084 19.304 9.19108 20.0226C9.1354 20.0727 9.08226 20.125 9 20.2027C9.29864 20.2905 9.57305 20.3782 9.85203 20.4521C11.4168 20.8664 13.0163 21.0515 14.6449 20.9877C17.8452 20.8622 20.7256 19.9287 23.2584 18.1587C25.3806 16.6757 26.9449 14.8057 27.9678 12.5707C28.0013 12.4974 28.0132 12.3926 27.9814 12.3221C27.0403 10.2333 25.6018 8.46901 23.6721 7Z" fill="#F65261"/>
<path fill-rule="evenodd" clip-rule="evenodd" d="M14 14.9906C16.2488 15.1367 18.2053 13.5467 17.9827 12C16.6609 12.9925 15.3281 13.9933 14 14.9906Z" fill="#F65261"/>
</svg>
