<svg width="4" height="19" viewBox="0 0 4 19" fill="none" xmlns="http://www.w3.org/2000/svg">
<path d="M4 2C4 3.10457 3.10457 4 2 4C0.89543 4 0 3.10457 0 2C0 0.89543 0.89543 0 2 0C3.10457 0 4 0.89543 4 2Z"  fill="white"/>
<path d="M4 9.5C4 10.6046 3.10457 11.5 2 11.5C0.89543 11.5 0 10.6046 0 9.5C0 8.39543 0.89543 7.5 2 7.5C3.10457 7.5 4 8.39543 4 9.5Z"  fill="white"/>
<path d="M4 17C4 18.1046 3.10457 19 2 19C0.89543 19 0 18.1046 0 17C0 15.8954 0.89543 15 2 15C3.10457 15 4 15.8954 4 17Z"  fill="white"/>
</svg>
